<?xml version="1.0" standalone="no"?>
<!DOCTYPE svg PUBLIC "-//W3C//DTD SVG 20010904//EN"
 "http://www.w3.org/TR/2001/REC-SVG-20010904/DTD/svg10.dtd">
<svg version="1.0" xmlns="http://www.w3.org/2000/svg"
 width="1279.000000pt" height="1283.000000pt" viewBox="0 0 1279.000000 1283.000000"
 preserveAspectRatio="xMidYMid meet">

<g transform="translate(0.000000,1283.000000) scale(0.100000,-0.100000)"
fill="#000000" stroke="none">
<path d="M6040 12814 c-102 -7 -228 -18 -280 -24 -52 -5 -117 -12 -145 -15
-27 -3 -93 -10 -145 -15 -52 -6 -117 -15 -145 -20 -27 -6 -97 -19 -155 -30
-111 -22 -133 -26 -275 -60 -177 -43 -521 -146 -610 -184 -16 -7 -79 -32 -140
-56 -129 -49 -154 -59 -177 -71 -10 -5 -25 -9 -33 -9 -8 0 -15 -4 -15 -10 0
-5 -11 -10 -25 -10 -14 0 -25 -4 -25 -10 0 -5 -6 -10 -14 -10 -16 0 -11 2
-287 -133 -197 -97 -227 -113 -444 -241 -183 -108 -524 -337 -533 -358 -2 -5
-7 -8 -12 -8 -5 0 -19 -9 -32 -19 -12 -11 -79 -65 -148 -119 -69 -55 -134
-108 -145 -118 -11 -11 -38 -34 -60 -53 -271 -229 -669 -655 -902 -967 -139
-186 -359 -523 -446 -684 -16 -30 -35 -62 -42 -70 -6 -8 -27 -46 -46 -85 -19
-38 -36 -72 -39 -75 -4 -4 -47 -93 -164 -341 -20 -42 -36 -84 -36 -93 0 -9 -4
-16 -10 -16 -5 0 -10 -7 -10 -15 0 -8 -4 -23 -9 -33 -19 -38 -91 -223 -121
-312 -12 -36 -25 -74 -30 -85 -5 -11 -14 -38 -21 -60 -6 -22 -15 -48 -20 -57
-5 -10 -9 -29 -9 -42 0 -14 -4 -27 -9 -30 -5 -3 -11 -18 -14 -33 -3 -16 -10
-44 -15 -63 -20 -70 -84 -316 -93 -357 -5 -24 -13 -62 -18 -85 -23 -107 -32
-157 -37 -203 -3 -27 -9 -59 -14 -70 -5 -11 -11 -45 -14 -75 -3 -30 -10 -89
-16 -130 -73 -519 -73 -1139 1 -1685 15 -118 45 -306 53 -340 2 -11 10 -47 16
-80 6 -33 16 -76 20 -95 5 -19 21 -84 35 -145 15 -60 30 -121 35 -135 4 -14
12 -43 18 -65 24 -94 35 -131 42 -150 5 -11 14 -42 21 -70 6 -27 15 -54 19
-60 3 -5 12 -30 19 -55 13 -49 111 -309 142 -377 10 -24 19 -47 19 -53 0 -6 4
-18 9 -28 5 -9 18 -37 29 -62 44 -97 255 -519 296 -590 110 -191 131 -225 138
-228 4 -2 8 -8 8 -12 0 -8 117 -190 138 -216 5 -5 15 -21 22 -33 13 -25 160
-224 207 -280 15 -18 33 -42 38 -51 6 -10 24 -33 40 -52 17 -18 37 -43 46 -55
45 -65 186 -220 404 -443 94 -96 193 -199 220 -227 28 -29 58 -53 68 -53 11 0
31 11 45 24 37 34 98 81 222 172 58 42 130 96 160 119 98 75 264 190 306 213
23 12 55 22 71 22 16 0 34 5 39 10 7 7 19 4 37 -10 27 -22 35 -58 17 -76 -7
-7 -3 -23 10 -49 20 -38 20 -38 -1 -53 -11 -7 -49 -22 -84 -32 -35 -10 -77
-25 -92 -33 -15 -8 -68 -29 -118 -47 -49 -17 -106 -39 -125 -48 -19 -8 -59
-25 -89 -37 -30 -11 -57 -27 -59 -34 -3 -10 1 -12 14 -8 20 6 172 68 241 98
24 11 49 19 56 19 8 0 17 3 20 7 16 16 151 59 232 74 91 17 89 18 96 -23 3
-22 17 -48 32 -62 15 -14 27 -29 27 -33 0 -4 12 -21 26 -38 17 -20 23 -36 19
-52 -4 -17 1 -27 22 -40 32 -19 72 -63 73 -78 0 -6 14 -28 32 -49 30 -37 29
-51 -4 -57 -5 -1 -12 -3 -18 -4 -5 -1 -23 -3 -40 -4 -16 0 -30 -5 -30 -11 0
-13 51 -13 85 0 30 11 65 -2 65 -24 0 -8 7 -19 15 -26 21 -18 19 -37 -6 -43
-17 -5 -19 -9 -9 -27 8 -15 17 -19 31 -15 14 5 19 2 19 -14 0 -11 7 -24 17
-29 12 -7 15 -18 10 -46 -4 -26 -2 -36 7 -36 43 0 24 -176 -22 -204 -7 -4 -5
-17 5 -37 11 -22 13 -45 8 -85 -4 -34 -3 -54 4 -54 5 0 17 -7 25 -16 14 -14
14 -19 1 -51 -8 -19 -15 -44 -15 -54 0 -21 41 -65 86 -92 56 -35 334 -165 419
-197 11 -4 31 -12 45 -18 97 -40 454 -159 575 -192 136 -37 228 -60 280 -71
28 -6 66 -15 85 -19 227 -51 500 -95 750 -119 58 -6 132 -14 165 -18 98 -11
861 -7 980 5 180 18 387 44 505 62 100 15 366 69 445 91 54 14 112 28 160 39
80 17 118 29 128 39 15 15 -8 44 -127 161 -73 73 -104 110 -101 121 3 9 -1 19
-9 22 -11 4 -13 1 -8 -11 8 -22 -74 42 -95 74 -8 13 -13 33 -10 44 6 23 -8 27
-17 5 -6 -17 -12 -13 -91 57 -23 21 -47 38 -53 38 -7 0 -19 17 -29 38 -9 20
-19 40 -21 44 -6 12 55 -21 67 -36 8 -9 24 -12 50 -9 23 3 41 1 45 -6 9 -14
26 -14 26 0 0 13 -26 40 -33 33 -7 -7 -87 16 -113 33 -15 9 -24 29 -28 57 -4
24 -13 52 -21 62 -8 12 -10 25 -4 35 4 9 13 35 18 58 9 39 8 43 -15 51 -15 6
-24 18 -24 30 0 12 -9 33 -20 48 -13 17 -18 35 -14 45 10 26 24 20 31 -14 4
-21 10 -28 20 -25 8 4 17 6 19 6 21 0 -16 77 -48 102 -20 15 -21 20 -10 37 14
24 16 34 3 27 -12 -8 -31 42 -30 84 0 112 -17 259 -32 276 -9 11 -21 39 -27
64 -27 117 -98 251 -192 364 -68 82 -111 128 -184 199 -45 42 -77 77 -73 77 4
0 36 -9 70 -21 67 -23 161 -49 164 -45 3 2 -41 25 -142 71 -90 41 -106 49
-260 130 -60 32 -124 70 -140 84 -17 14 -64 49 -104 76 -79 53 -271 240 -271
264 0 8 -16 33 -35 57 -22 26 -35 53 -35 71 0 27 -32 91 -51 104 -10 6 -20 41
-21 69 0 8 -18 36 -39 62 -22 26 -39 57 -39 71 0 13 -18 47 -41 76 -40 50 -41
52 -41 131 0 62 -3 80 -14 80 -8 0 -14 10 -15 23 -4 100 -3 174 4 170 4 -2 10
4 14 14 4 10 20 29 35 43 28 25 29 26 10 46 -23 24 -45 33 -177 70 -96 27
-212 70 -265 98 -14 7 -43 19 -65 26 -22 7 -53 23 -70 35 -16 12 -52 34 -78
49 -121 69 -332 263 -441 405 -116 151 -272 412 -344 576 -17 39 -57 131 -90
205 -65 145 -124 291 -177 435 -37 99 -73 185 -111 258 -26 51 -92 204 -138
318 -29 75 -96 304 -96 330 0 10 -9 55 -19 101 -11 46 -24 144 -31 218 -6 74
-19 205 -29 290 -10 85 -19 173 -19 195 0 35 -8 111 -27 250 -5 34 -25 130
-55 265 -8 35 -27 127 -56 275 -9 44 -32 136 -51 205 -57 204 -80 298 -103
430 -12 69 -26 139 -32 155 -16 50 -23 443 -9 532 27 172 96 504 130 628 16
55 32 114 35 130 31 139 119 336 213 480 150 229 262 357 398 454 74 54 97 71
148 112 18 14 50 36 72 49 22 13 45 29 51 35 6 5 39 30 74 55 35 25 73 54 84
65 11 11 46 32 77 46 31 15 59 34 62 42 3 8 21 18 39 22 18 4 49 15 68 25 20
10 56 21 80 24 60 7 91 16 115 33 18 13 12 13 -50 8 -40 -3 -76 -2 -85 4 -19
13 -7 24 27 24 15 0 38 6 50 14 13 9 36 13 54 11 24 -4 34 1 50 21 18 22 28
26 67 24 28 -1 53 4 62 12 15 13 77 36 133 49 15 4 27 13 27 22 0 13 6 15 28
9 33 -10 37 -10 132 0 41 4 80 12 86 16 6 5 59 11 119 13 91 4 111 8 129 25
13 12 25 19 27 16 3 -2 32 -7 65 -10 123 -12 269 -37 409 -69 39 -9 90 -21
115 -27 53 -12 180 -58 288 -106 29 -13 54 -23 57 -23 19 0 277 -136 340 -179
166 -113 462 -349 555 -441 119 -118 270 -298 270 -324 0 -5 17 -34 38 -65 39
-58 160 -298 208 -411 15 -36 41 -94 57 -130 17 -36 43 -103 58 -150 15 -47
34 -103 43 -125 8 -22 15 -61 16 -86 0 -32 5 -49 15 -53 8 -3 15 -13 15 -22 0
-9 14 -46 30 -81 17 -35 37 -81 44 -101 8 -20 33 -84 56 -142 23 -58 49 -123
58 -145 8 -22 86 -188 173 -370 86 -181 182 -383 213 -448 125 -263 226 -536
266 -719 30 -137 37 -288 26 -513 -9 -201 -4 -323 35 -790 13 -149 6 -587 -10
-685 -38 -224 -45 -257 -84 -380 -67 -211 -238 -530 -372 -695 -27 -33 -67
-87 -89 -120 -46 -69 -45 -54 -33 -335 14 -328 4 -769 -20 -830 -3 -8 -9 -55
-13 -105 -17 -203 -33 -324 -62 -458 -5 -26 -10 -63 -10 -82 0 -19 -4 -38 -9
-41 -10 -6 -12 -87 -3 -121 4 -13 13 -23 21 -23 12 0 14 -8 8 -37 -9 -44 -9
-44 -7 -105 1 -27 9 -53 18 -63 12 -11 15 -27 10 -63 -18 -164 -18 -168 -2
-201 9 -17 21 -29 26 -26 9 6 15 -18 10 -40 -1 -5 -4 -70 -6 -144 -2 -74 -9
-170 -15 -215 -15 -112 -22 -375 -8 -322 5 21 15 44 23 50 9 7 16 41 19 95 5
79 17 108 39 95 11 -7 10 -132 -2 -173 -5 -19 -11 -61 -12 -93 -1 -33 -6 -62
-10 -64 -4 -3 -8 -40 -9 -82 0 -42 -5 -117 -11 -167 -9 -82 -14 -142 -17 -202
-1 -12 -10 -24 -20 -28 -15 -4 -20 -18 -24 -63 -3 -31 -10 -82 -15 -112 -12
-61 -16 -309 -6 -334 8 -21 34 -20 60 2 17 13 23 32 28 77 9 98 17 158 28 200
9 38 36 162 42 195 1 8 10 38 18 65 9 28 19 73 22 100 11 86 27 178 43 240 15
56 20 82 22 113 1 6 8 12 16 12 10 0 16 11 17 33 1 17 2 39 3 47 1 24 36 113
50 130 7 8 15 24 17 35 5 28 31 25 40 -5 4 -14 11 -61 15 -105 7 -69 11 -80
28 -83 23 -4 75 -110 75 -153 0 -14 9 -43 19 -65 11 -22 22 -57 26 -79 12 -68
63 -236 112 -367 26 -72 40 -81 73 -48 16 16 18 25 10 45 -6 15 -10 40 -10 57
l0 31 25 -23 c14 -13 28 -20 32 -17 8 9 -26 47 -42 47 -24 0 -38 31 -39 89 -1
40 -7 64 -19 75 -9 10 -17 27 -17 39 0 12 -7 42 -16 67 -9 25 -13 57 -10 73 7
36 -11 124 -34 162 -22 36 -37 105 -22 105 16 0 32 -26 30 -46 -2 -11 2 -20 7
-21 13 -3 9 75 -5 91 -5 7 -12 26 -14 42 -2 16 -7 47 -11 70 -8 45 10 74 46
74 13 0 19 7 19 23 0 20 5 23 35 22 19 -1 38 -4 41 -8 15 -14 23 -98 12 -116
-9 -15 -7 -26 9 -52 11 -19 23 -50 26 -68 9 -44 24 -61 53 -61 19 0 24 -5 24
-24 0 -23 -4 -25 -40 -23 -37 2 -39 1 -33 -23 3 -14 12 -28 19 -33 7 -4 16
-24 20 -45 4 -20 13 -45 19 -55 18 -26 9 -168 -11 -183 -15 -12 -20 -84 -5
-84 9 0 20 -42 25 -97 4 -53 10 -53 91 -5 17 9 53 31 80 47 141 82 459 315
655 481 47 40 108 92 137 116 75 63 455 446 556 562 276 313 639 826 743 1049
20 45 21 53 8 71 -34 50 -7 96 95 161 21 13 41 34 45 48 3 13 37 89 76 170 38
81 70 149 70 152 0 3 11 28 25 57 14 28 25 55 25 60 0 5 8 27 19 51 36 81 135
346 162 432 6 22 14 47 17 55 11 32 50 171 92 325 32 120 81 335 87 380 2 22
8 49 13 60 5 11 11 45 15 75 3 30 10 82 16 115 12 79 26 180 38 285 13 111 13
1293 0 1385 -5 39 -14 104 -19 145 -6 41 -15 107 -20 145 -6 39 -13 93 -16
120 -3 28 -10 54 -15 60 -5 5 -9 22 -9 37 0 15 -4 47 -10 70 -40 173 -103 427
-109 448 -5 14 -14 45 -21 70 -28 101 -33 116 -41 132 -5 10 -9 27 -9 37 0 11
-4 23 -10 26 -5 3 -10 17 -10 30 0 13 -4 26 -9 29 -4 3 -11 19 -15 36 -6 31
-74 216 -116 315 -7 17 -16 39 -20 50 -5 11 -17 40 -28 65 -10 25 -28 65 -38
90 -36 86 -212 436 -258 514 -25 43 -46 80 -46 83 0 2 -13 23 -28 46 -15 23
-34 55 -42 71 -15 29 -171 273 -187 291 -5 6 -40 55 -78 110 -84 122 -229 309
-344 444 -195 229 -665 691 -794 780 -12 8 -38 30 -57 48 -19 18 -38 33 -42
33 -4 0 -27 17 -51 38 -25 20 -88 69 -142 107 -53 39 -102 75 -109 80 -6 6
-19 15 -28 20 -8 6 -49 32 -89 59 -41 27 -93 62 -117 77 -24 16 -47 29 -53 29
-5 0 -9 4 -9 8 0 5 -12 15 -27 23 -16 7 -50 27 -78 43 -27 16 -88 51 -135 78
-79 46 -474 244 -565 283 -58 25 -107 46 -132 56 -13 5 -33 13 -45 18 -60 25
-241 92 -313 116 -44 15 -89 31 -100 36 -11 4 -40 13 -65 20 -25 6 -54 15 -65
19 -11 5 -31 11 -45 15 -14 3 -56 15 -95 25 -38 10 -126 32 -195 50 -69 17
-141 35 -160 39 -19 5 -62 15 -95 21 -33 6 -69 14 -80 16 -69 17 -351 57 -520
75 -331 34 -759 44 -1035 23z m2838 -2196 c26 -12 49 -25 52 -28 3 -3 28 -19
55 -35 28 -15 52 -31 55 -35 3 -4 21 -15 40 -26 19 -10 39 -22 45 -27 5 -4 48
-35 95 -68 47 -33 98 -70 114 -82 46 -35 180 -141 186 -147 3 -3 41 -36 85
-74 141 -121 367 -347 475 -476 30 -36 65 -76 78 -90 13 -14 42 -50 65 -80 23
-30 54 -68 69 -85 16 -16 28 -35 28 -42 0 -6 4 -13 8 -15 5 -1 28 -32 53 -67
73 -106 169 -251 169 -256 0 -2 14 -24 30 -48 17 -25 30 -48 30 -51 0 -3 16
-30 35 -60 19 -30 35 -59 35 -63 0 -4 9 -19 20 -33 11 -14 20 -30 20 -37 0 -6
18 -43 40 -82 22 -39 40 -77 40 -86 0 -8 5 -15 10 -15 6 0 10 -5 10 -11 0 -6
16 -44 35 -85 19 -41 45 -100 56 -132 12 -31 25 -61 30 -66 5 -6 9 -17 9 -26
0 -9 9 -35 20 -58 11 -22 20 -46 20 -52 0 -5 4 -18 9 -28 5 -9 15 -37 22 -62
7 -25 16 -49 20 -55 6 -10 21 -59 54 -180 9 -33 21 -76 27 -95 5 -19 13 -53
18 -75 5 -22 14 -60 20 -85 13 -54 27 -124 40 -202 6 -32 15 -86 20 -120 14
-85 27 -187 42 -343 21 -216 14 -901 -10 -940 -3 -5 -10 -46 -14 -90 -4 -44
-12 -108 -18 -142 -5 -35 -14 -89 -20 -120 -12 -74 -26 -147 -38 -198 -6 -22
-15 -60 -20 -85 -27 -117 -90 -332 -116 -395 -7 -16 -23 -61 -36 -100 -27 -84
-68 -175 -80 -175 -14 0 -26 23 -65 120 -20 52 -50 122 -66 155 -15 33 -32 78
-37 100 -6 22 -19 63 -30 90 -36 88 -92 247 -92 260 0 7 -11 37 -24 66 -13 30
-29 79 -36 109 -23 96 -66 224 -99 289 -18 35 -37 91 -43 125 -5 33 -20 77
-32 96 -13 19 -45 87 -71 150 -26 63 -53 122 -59 130 -7 8 -17 26 -23 40 -19
42 -123 356 -123 372 0 7 -14 54 -30 103 -17 50 -39 122 -50 160 -21 75 -30
102 -144 390 -91 232 -159 415 -179 481 -8 27 -40 118 -70 202 -31 85 -68 202
-82 260 -33 139 -40 164 -86 306 -22 66 -39 129 -39 141 0 34 -38 209 -75 345
-19 69 -39 154 -45 190 -7 36 -31 124 -55 195 -23 72 -48 159 -54 193 -27 145
-155 472 -326 828 -36 75 -65 141 -65 146 0 13 17 10 68 -14z m-5685 -135 c-3
-21 -13 -48 -21 -60 -17 -27 -58 -32 -48 -7 3 9 6 20 6 24 0 9 58 80 65 80 2
0 1 -17 -2 -37z m-93 -132 c0 -27 -17 -35 -23 -11 -5 19 0 30 15 30 4 0 8 -9
8 -19z m-223 -647 c3 -8 -1 -50 -10 -92 -9 -42 -19 -113 -22 -157 -3 -44 -10
-102 -16 -130 -9 -48 -19 -220 -39 -660 -11 -272 -30 -513 -42 -545 -8 -21
-18 -204 -31 -607 -2 -46 1 -84 5 -85 9 -3 30 -119 28 -148 -1 -8 -1 -46 -2
-84 0 -54 4 -73 17 -82 15 -11 16 -24 6 -133 -6 -77 -7 -132 0 -153 5 -18 6
-58 3 -89 -6 -51 -4 -58 20 -84 19 -20 26 -39 27 -69 1 -23 2 -92 4 -154 3
-110 3 -114 -21 -135 -19 -16 -24 -30 -24 -67 0 -26 3 -49 6 -53 3 -3 7 -96 8
-206 1 -111 6 -204 10 -208 21 -21 33 35 41 184 4 87 7 174 7 193 -1 31 0 33
11 15 8 -13 13 -86 15 -208 3 -168 2 -190 -13 -201 -16 -11 -16 -14 -1 -28 20
-21 20 -38 -1 -53 -15 -11 -15 -25 -5 -156 7 -79 12 -151 12 -159 -4 -292 -4
-292 -27 -307 -13 -9 -23 -21 -23 -28 0 -8 -6 -16 -12 -18 -8 -3 -6 -6 5 -6
50 -2 -9 -341 -59 -341 -14 0 -28 -30 -18 -39 3 -3 12 3 20 13 37 52 29 -23
-25 -234 -32 -123 -68 -235 -81 -255 -4 -5 -10 -23 -14 -40 -4 -16 -17 -40
-28 -52 -12 -13 -22 -40 -25 -70 -2 -26 -8 -57 -13 -68 -21 -49 -40 -158 -40
-232 0 -86 -8 -143 -20 -143 -13 0 -45 35 -92 100 -26 36 -52 70 -58 77 -5 7
-10 15 -10 18 0 4 -15 27 -32 53 -107 155 -290 498 -393 737 -25 57 -94 240
-105 280 -7 22 -16 48 -21 57 -5 10 -9 27 -9 38 0 11 -4 20 -9 20 -5 0 -11 12
-14 28 -7 35 -66 241 -77 267 -5 11 -11 34 -14 50 -3 17 -10 53 -16 80 -32
147 -50 249 -80 465 -37 270 -48 808 -22 1050 33 288 67 510 102 650 6 25 15
63 20 85 5 22 13 56 18 75 6 19 20 71 31 115 12 44 25 89 30 100 5 11 14 36
21 55 7 19 15 44 20 55 17 45 30 92 30 108 0 9 5 17 10 17 6 0 10 8 10 18 0
10 9 37 20 60 11 22 20 47 20 55 0 7 4 17 8 23 5 5 16 27 25 49 8 23 33 79 55
125 22 47 46 100 53 118 8 17 17 32 21 32 5 0 8 6 8 14 0 8 16 43 35 78 19 35
45 83 57 108 13 25 26 47 29 50 3 3 16 25 30 50 13 25 27 49 32 55 4 5 37 57
73 114 63 98 219 320 233 331 4 3 23 26 42 51 78 103 172 206 229 251 41 32
49 33 57 12z m-17 -3491 c-1 -24 -2 -26 -11 -10 -5 9 -7 22 -4 27 10 17 15 11
15 -17z m-170 -2241 c0 -19 -18 -42 -32 -42 -10 0 -11 44 -1 53 13 14 33 7 33
-11z m-44 -150 c-12 -11 -18 7 -10 30 l8 23 4 -23 c2 -13 1 -26 -2 -30z m8948
-190 c3 -4 30 -21 61 -37 53 -26 75 -48 62 -61 -9 -9 -102 45 -132 76 -22 23
-25 30 -12 30 8 0 18 -4 21 -8z m316 -54 c51 -16 120 -58 120 -74 0 -8 -11
-14 -27 -15 -16 0 -23 -3 -16 -6 21 -8 -18 -40 -59 -47 -34 -6 -38 -5 -44 19
-4 15 -28 43 -53 64 -45 35 -53 56 -27 73 11 7 51 2 106 -14z m-8801 -12 c10
-12 7 -18 -13 -31 -22 -15 -26 -25 -26 -64 0 -51 -16 -103 -42 -141 -10 -13
-18 -31 -18 -39 0 -10 -3 -12 -10 -5 -10 10 -7 31 16 137 8 35 -13 37 -26 2
-18 -48 -46 -19 -30 32 5 15 12 40 15 55 4 19 10 25 23 21 12 -3 24 4 36 21
18 29 56 35 75 12z m3775 -1173 c65 -45 286 -256 286 -273 0 -5 16 -27 36 -51
40 -48 74 -110 74 -134 0 -9 7 -23 16 -32 11 -11 12 -19 5 -26 -18 -18 -13
-38 14 -59 15 -11 25 -30 25 -44 0 -14 7 -32 15 -41 19 -18 9 -39 -11 -22 -8
6 -14 22 -14 35 0 13 -6 24 -12 24 -22 0 -84 73 -102 120 -20 52 -46 83 -98
116 -45 29 -56 30 -75 7 -8 -10 -11 -12 -8 -5 4 8 -3 22 -17 33 -54 47 -108
101 -108 110 0 15 16 10 35 -11 10 -11 24 -20 32 -20 8 0 26 -6 41 -13 16 -8
39 -11 57 -7 l30 7 -28 11 c-16 7 -32 12 -36 12 -5 0 -37 23 -71 50 -34 28
-66 50 -71 50 -15 0 -51 81 -56 124 -2 23 -14 51 -25 64 -34 35 -9 26 66 -25z
m-41 -137 c4 -10 1 -13 -9 -9 -7 3 -14 9 -14 14 0 14 17 10 23 -5z m277 -311
c13 -14 20 -25 16 -25 -13 0 -66 34 -66 42 0 16 27 7 50 -17z m2400 -25 c17
-9 18 -50 1 -50 -13 0 -31 24 -31 42 0 21 4 22 30 8z m-2402 -44 c15 -8 35
-23 45 -34 18 -19 18 -22 2 -46 -14 -21 -20 -24 -32 -15 -8 7 -12 18 -9 25 3
8 -13 21 -40 34 -45 22 -54 34 -31 43 21 9 37 7 65 -7z m150 -130 c29 -27 52
-69 52 -96 0 -20 -4 -21 -42 -15 -33 5 -53 17 -85 51 -50 51 -57 80 -18 70 19
-5 25 -2 25 9 0 21 36 11 68 -19z m2186 -112 c3 -8 2 -12 -4 -9 -6 3 -10 10
-10 16 0 14 7 11 14 -7z m-5841 -929 c4 -8 2 -17 -3 -20 -6 -4 -10 3 -10 14 0
25 6 27 13 6z"/>
<path d="M2800 5714 c0 -8 5 -12 10 -9 6 4 8 11 5 16 -9 14 -15 11 -15 -7z"/>
<path d="M7266 1865 c4 -8 7 -15 9 -15 2 0 5 7 9 15 3 9 0 15 -9 15 -9 0 -12
-6 -9 -15z"/>
<path d="M7252 1700 c0 -14 2 -19 5 -12 2 6 2 18 0 25 -3 6 -5 1 -5 -13z"/>
<path d="M8070 10331 c-8 -6 -37 -13 -65 -16 -27 -4 -82 -22 -122 -41 -40 -19
-79 -34 -86 -34 -8 0 -25 -9 -39 -19 -13 -11 -42 -24 -64 -30 -23 -6 -61 -26
-85 -43 -58 -43 -75 -53 -126 -77 -24 -11 -43 -24 -43 -28 0 -22 -72 -46 -131
-44 -65 3 -69 0 -152 -84 -26 -27 -46 -39 -60 -37 -16 2 -26 -5 -35 -25 -6
-15 -25 -49 -41 -75 -16 -25 -28 -48 -26 -50 7 -7 -16 -90 -28 -103 -8 -7 -22
-14 -33 -17 -24 -4 -29 -37 -9 -63 14 -17 17 -18 25 -5 8 13 11 12 24 -5 9
-11 16 -30 16 -42 0 -15 10 -28 29 -38 28 -14 33 -13 85 13 30 15 55 33 55 40
1 6 8 12 17 12 8 0 32 8 52 19 86 43 128 61 144 61 9 0 19 4 23 9 17 28 99 71
135 71 37 0 42 4 93 73 44 59 66 78 118 106 35 18 73 41 84 51 11 9 51 32 88
50 38 19 83 47 100 63 60 56 116 88 174 98 42 8 68 20 96 45 29 27 43 33 62
28 21 -5 25 -3 25 15 0 15 -10 23 -41 32 -22 7 -46 20 -52 29 -7 9 -48 29 -93
43 -90 30 -93 30 -114 18z m-1023 -763 c-3 -7 -5 -2 -5 12 0 14 2 19 5 13 2
-7 2 -19 0 -25z"/>
<path d="M8430 10115 c-13 -16 -8 -18 28 -9 12 4 22 10 22 15 0 15 -37 10 -50
-6z"/>
<path d="M5132 9380 c-18 -11 -45 -20 -61 -20 -16 0 -46 -6 -67 -14 -23 -8
-60 -12 -90 -9 -33 3 -63 0 -88 -11 -21 -9 -59 -16 -85 -16 -26 0 -52 -5 -58
-11 -6 -6 -39 -11 -73 -11 -49 0 -70 -5 -97 -24 -20 -13 -40 -21 -45 -18 -14
9 -98 -16 -130 -38 -16 -11 -36 -18 -45 -17 -49 4 -60 -15 -18 -31 27 -10 32
-31 12 -49 -9 -6 -13 -26 -11 -48 2 -21 3 -41 3 -45 1 -14 48 -8 61 7 7 8 28
15 46 15 19 0 34 4 34 9 0 9 86 13 271 13 49 0 165 -14 431 -52 68 -10 128 -4
140 13 9 14 27 17 128 24 47 3 91 10 98 16 7 5 70 12 141 14 106 3 130 1 141
-12 18 -21 40 -19 40 5 0 24 16 26 36 5 20 -19 44 -19 44 0 0 26 -53 116 -83
141 -16 13 -39 24 -52 24 -15 0 -25 7 -28 21 -4 16 -11 19 -26 14 -12 -4 -21
-2 -21 4 0 6 7 11 15 11 18 0 20 24 2 38 -24 21 -106 37 -125 26 -12 -8 -28
-8 -57 2 -22 7 -58 18 -80 25 -21 6 -91 13 -155 15 -101 3 -120 1 -148 -16z"/>
<path d="M7925 9235 c-49 -7 -108 -19 -130 -25 -131 -39 -361 -196 -482 -329
-80 -87 -108 -130 -117 -179 -7 -40 7 -48 61 -32 21 7 105 14 187 15 95 3 152
8 156 15 4 6 31 18 61 26 30 8 78 21 106 29 32 9 93 14 152 13 80 -1 103 2
116 16 9 9 27 16 39 16 13 0 29 6 35 14 17 21 118 49 152 42 30 -6 136 16 173
36 11 6 37 10 59 10 30 -1 51 7 82 31 24 18 57 40 74 49 26 14 30 22 26 41 -4
15 -1 30 10 40 10 11 13 25 9 42 -5 20 3 37 35 80 22 30 41 57 41 60 0 11
-140 4 -179 -10 -22 -8 -41 -12 -41 -10 0 3 -11 0 -24 -5 -16 -6 -44 -4 -84 5
-34 8 -85 14 -114 14 -29 -1 -111 1 -183 4 -83 4 -162 1 -220 -8z m359 -224
c59 -14 66 -27 31 -56 -43 -36 -105 -67 -121 -61 -15 6 -19 62 -8 104 7 25 32
28 98 13z"/>
<path d="M7555 9230 c-3 -5 -2 -10 4 -10 5 0 13 5 16 10 3 6 2 10 -4 10 -5 0
-13 -4 -16 -10z"/>
<path d="M7498 9182 c-29 -19 -84 -82 -71 -82 4 1 30 21 58 45 51 45 59 67 13
37z"/>
<path d="M4194 9056 c-8 -14 -21 -27 -27 -29 -7 -2 -1 -2 13 0 26 5 60 30 60
45 0 17 -30 7 -46 -16z"/>
<path d="M5305 8459 c-49 -4 -106 -12 -125 -18 -19 -5 -47 -13 -63 -16 -15 -3
-36 -14 -47 -25 -11 -11 -29 -20 -40 -20 -11 0 -23 -8 -27 -17 -11 -31 -35
-53 -59 -53 -14 0 -25 -8 -29 -19 -3 -11 -20 -24 -36 -30 -17 -6 -33 -20 -36
-31 -4 -14 -14 -20 -34 -20 -16 0 -30 -4 -30 -10 -1 -5 -2 -16 -3 -22 0 -7
-16 -14 -33 -16 -19 -2 -33 -9 -33 -17 0 -14 -21 -25 -50 -25 -11 0 -24 -9
-30 -20 -8 -14 -21 -20 -45 -20 -25 0 -41 -7 -57 -25 -12 -14 -26 -25 -31 -25
-4 0 -15 -7 -23 -15 -8 -8 -32 -19 -52 -25 -20 -5 -53 -18 -72 -28 -19 -10
-57 -24 -85 -31 -60 -15 -145 -51 -145 -61 0 -10 72 -36 145 -53 33 -8 75 -22
94 -31 47 -25 166 -33 189 -14 22 19 71 40 145 62 31 9 57 20 57 23 0 4 -7 15
-16 25 -16 17 -15 20 20 53 21 19 43 35 51 35 7 0 29 -18 49 -40 33 -37 40
-40 88 -40 36 0 90 13 168 41 63 22 130 45 148 51 19 7 54 30 78 51 33 29 55
40 82 42 20 1 61 15 90 30 29 14 83 37 121 50 72 24 294 162 285 177 -3 4 -24
18 -47 29 -23 12 -45 26 -49 32 -3 5 -26 11 -50 13 -59 3 -170 22 -199 32 -13
5 -52 12 -87 16 -35 4 -69 8 -75 10 -7 2 -52 0 -102 -5z m217 -220 c19 -10 16
-15 -48 -80 -101 -101 -139 -95 -151 27 -5 50 -4 54 18 63 29 12 153 5 181
-10z m-1092 -324 c-9 -11 -16 -13 -23 -6 -7 7 -6 15 3 26 9 11 16 13 23 6 7
-7 6 -15 -3 -26z"/>
<path d="M7645 7342 c-53 -17 -109 -91 -103 -134 4 -27 23 -26 83 3 84 40 105
57 105 87 0 47 -29 62 -85 44z"/>
<path d="M8712 7131 c6 -10 37 -31 68 -47 33 -17 66 -43 79 -61 18 -28 51 -45
51 -28 0 36 -71 103 -143 135 -56 26 -71 26 -55 1z"/>
<path d="M6770 7079 c-88 -18 -125 -33 -157 -63 -18 -16 -33 -37 -33 -46 0
-25 33 -50 66 -50 46 0 200 46 232 69 17 11 37 21 45 21 9 0 19 5 22 10 4 6
12 7 18 3 7 -3 3 4 -8 17 -40 46 -94 57 -185 39z"/>
<path d="M8490 6708 c-14 -7 -43 -19 -66 -29 -23 -10 -52 -34 -67 -56 -49 -70
-113 -109 -226 -137 -77 -19 -276 -91 -332 -120 -26 -13 -62 -27 -80 -31 -19
-4 -59 -17 -89 -30 -40 -16 -75 -23 -128 -23 -82 0 -172 -30 -209 -69 -12 -13
-28 -23 -36 -23 -8 0 -26 -9 -40 -20 -14 -11 -40 -23 -59 -26 -18 -4 -42 -12
-53 -18 -11 -7 -40 -18 -65 -25 -89 -26 -195 -63 -205 -71 -5 -4 -50 -20 -100
-35 -61 -19 -104 -39 -133 -62 -45 -37 -76 -48 -177 -64 -75 -12 -103 -6 -107
24 -3 20 -8 22 -47 19 -24 -2 -54 -10 -65 -17 -12 -7 -32 -16 -46 -20 -35 -11
-90 -48 -87 -59 4 -13 259 -7 349 9 42 7 100 25 129 40 30 14 68 28 86 31 18
2 56 15 85 29 28 14 61 25 72 25 12 0 57 14 101 30 192 73 338 110 442 110 44
1 75 6 87 15 11 8 32 15 48 15 15 0 28 4 28 10 0 15 72 57 137 79 70 24 103
37 253 103 67 30 165 55 242 63 45 5 62 12 77 31 16 20 28 24 73 24 66 0 119
33 158 99 14 23 44 71 68 108 23 36 42 70 42 74 0 12 -30 10 -60 -3z"/>
<path d="M3140 1694 c0 -9 5 -14 12 -12 18 6 21 28 4 28 -9 0 -16 -7 -16 -16z"/>
<path d="M2210 1610 c-8 -5 -12 -12 -9 -15 8 -8 39 5 39 16 0 11 -11 11 -30
-1z"/>
<path d="M9627 1404 c-3 -4 -2 -16 4 -26 8 -15 14 -17 22 -9 8 8 7 15 -4 26
-8 9 -18 13 -22 9z"/>
<path d="M9626 1231 c-3 -5 2 -19 12 -32 21 -26 34 -15 21 19 -9 23 -24 29
-33 13z"/>
<path d="M7627 1213 c-3 -5 -2 -23 1 -42 l5 -34 13 33 c14 32 11 50 -6 50 -5
0 -11 -3 -13 -7z"/>
<path d="M7807 773 c-4 -3 -7 -11 -7 -17 0 -6 5 -5 12 2 6 6 9 14 7 17 -3 3
-9 2 -12 -2z"/>
<path d="M7810 726 c0 -2 7 -9 15 -16 12 -10 15 -10 15 4 0 9 -7 16 -15 16 -8
0 -15 -2 -15 -4z"/>
</g>
</svg>
